<svg xmlns="http://www.w3.org/2000/svg" width="24" height="24" viewBox="0 0 48 48" aria-label="Google logo" role="img">
  <path fill="#EA4335" d="M24 9.5c3.36 0 6.4 1.2 8.77 3.18l5.99-5.99C34.98 3.31 29.76 1 24 1 14.73 1 6.69 6.36 2.7 14.26l7.07 5.49C11.54 13.29 17.29 9.5 24 9.5z"/>
  <path fill="#4285F4" d="M46.1 24.5c0-1.56-.14-3.06-.41-4.5H24v9h12.36c-.53 2.86-2.13 5.28-4.52 6.9l6.9 5.35c4.04-3.73 6.36-9.22 6.36-16.75z"/>
  <path fill="#FBBC05" d="M9.77 28.25a14.5 14.5 0 010-8.5l-7.07-5.49a23.99 23.99 0 000 19.48l7.07-5.49z"/>
  <path fill="#34A853" d="M24 47c5.76 0 10.98-1.9 14.65-5.15l-6.9-5.35c-1.92 1.29-4.39 2.05-7.75 2.05-6.71 0-12.46-3.79-14.23-10.26l-7.07 5.49C6.69 41.64 14.73 47 24 47z"/>
</svg>
